<svg xmlns="http://www.w3.org/2000/svg" width="22.519" height="26.176" viewBox="0 0 22.519 26.176">
  <g id="Grupo_37353" data-name="Grupo 37353" transform="translate(-38.241 -460.54)">
    <path id="Trazado_1992" data-name="Trazado 1992" d="M127.074,72.3V89.678a3.134,3.134,0,0,1-3.12,3.126H111.329a2.983,2.983,0,0,1-.829-.128,3.044,3.044,0,0,0,2.875,2.1h12.784a3.054,3.054,0,0,0,3.044-3.044V75.19A3.047,3.047,0,0,0,127.074,72.3Z" transform="translate(-68.443 391.938)" fill="#999"/>
    <path id="Trazado_1993" data-name="Trazado 1993" d="M51.722,0H38.944A3.054,3.054,0,0,0,35.9,3.044V19.593a3.054,3.054,0,0,0,3.044,3.044H51.728a3.054,3.054,0,0,0,3.044-3.044V3.044A3.059,3.059,0,0,0,51.722,0Zm.972,17.894A2.4,2.4,0,0,1,50.3,20.288H40.248a2.4,2.4,0,0,1-2.394-2.394V4.88a2.4,2.4,0,0,1,2.394-2.394H50.305A2.4,2.4,0,0,1,52.7,4.88V17.894Z" transform="translate(2.341 460.54)" fill="#999"/>
    <path id="Trazado_1994" data-name="Trazado 1994" d="M187.816,98.238H181.2a.5.5,0,0,1-.5-.5V97.7a.5.5,0,0,1,.5-.5h6.614a.5.5,0,0,1,.5.5v.036A.5.5,0,0,1,187.816,98.238Z" transform="translate(-135.052 368.313)" fill="#999"/>
    <path id="Trazado_1995" data-name="Trazado 1995" d="M121.3,155.938H111.1a.5.5,0,0,1-.5-.5V155.4a.5.5,0,0,1,.5-.5h10.206a.5.5,0,0,1,.5.5v.036A.51.51,0,0,1,121.3,155.938Z" transform="translate(-68.538 313.564)" fill="#999"/>
    <path id="Trazado_1996" data-name="Trazado 1996" d="M121.3,213.538H111.1a.5.5,0,0,1-.5-.5V213a.5.5,0,0,1,.5-.5h10.206a.5.5,0,0,1,.5.5v.036A.507.507,0,0,1,121.3,213.538Z" transform="translate(-68.538 258.911)" fill="#999"/>
    <path id="Trazado_1997" data-name="Trazado 1997" d="M121.3,271.238H111.1a.5.5,0,0,1-.5-.5V270.7a.5.5,0,0,1,.5-.5h10.206a.5.5,0,0,1,.5.5v.036A.507.507,0,0,1,121.3,271.238Z" transform="translate(-68.538 204.162)" fill="#999"/>
    <path id="Trazado_1998" data-name="Trazado 1998" d="M121.3,328.938H111.1a.5.5,0,0,1-.5-.5V328.4a.5.5,0,0,1,.5-.5h10.206a.5.5,0,0,1,.5.5v.036A.51.51,0,0,1,121.3,328.938Z" transform="translate(-68.538 149.414)" fill="#999"/>
  </g>
</svg>
