<svg xmlns="http://www.w3.org/2000/svg" width="17.5" height="19.75" viewBox="0 0 17.5 19.75">
  <g id="User_Icon" data-name="User Icon" transform="translate(-1285.25 -40)">
    <g id="Ellipse_132_Stroke_" data-name="Ellipse 132 (Stroke)" transform="translate(1289 40)" fill="none">
      <path d="M5,8.5A3.5,3.5,0,1,0,1.5,5,3.5,3.5,0,0,0,5,8.5ZM5,10A5,5,0,1,0,0,5,5,5,0,0,0,5,10Z" stroke="none"/>
      <path d="M 5 10 C 2.238579988479614 10 0 7.761419773101807 0 5 C 0 2.238579988479614 2.238579988479614 0 5 0 C 7.761419773101807 0 10 2.238579988479614 10 5 C 10 7.761419773101807 7.761419773101807 10 5 10 Z M 5 1.5 C 3.066999912261963 1.5 1.5 3.066999912261963 1.5 5 C 1.5 6.933000087738037 3.066999912261963 8.5 5 8.5 C 6.933000087738037 8.5 8.5 6.933000087738037 8.5 5 C 8.5 3.066999912261963 6.933000087738037 1.5 5 1.5 Z" stroke="none" fill="#000"/>
    </g>
    <path id="Vector_631_Stroke_" data-name="Vector 631 (Stroke)" d="M5.75,1.5A4.25,4.25,0,0,0,1.5,5.75v1a.75.75,0,0,1-1.5,0v-1A5.75,5.75,0,0,1,5.75,0h6A5.75,5.75,0,0,1,17.5,5.75v1a.75.75,0,0,1-1.5,0v-1A4.25,4.25,0,0,0,11.75,1.5Z" transform="translate(1285.25 52.25)"/>
  </g>
</svg>
