<svg xmlns="http://www.w3.org/2000/svg" width="23.602" height="27.333" viewBox="0 0 27.602 27.333">
  <g id="Grupo_37352" data-name="Grupo 37352" transform="translate(-38.241 -397.667)">
    <path id="Trazado_1999" data-name="Trazado 1999" d="M139.653,53.9a.567.567,0,0,0,.564-.53l.237-4.187a.565.565,0,0,0-1.128-.068l-.237,4.187a.567.567,0,0,0,.53.6Z" transform="translate(-85.794 353.808)" fill="#999"/>
    <path id="Trazado_2000" data-name="Trazado 2000" d="M169.453,38.807a.567.567,0,0,0,.564-.53l.248-4.39a.567.567,0,0,0-.53-.6.574.574,0,0,0-.6.53l-.248,4.39a.567.567,0,0,0,.53.6Z" transform="translate(-112.231 367.382)" fill="#999"/>
    <path id="Trazado_2001" data-name="Trazado 2001" d="M32.9,150.206a1.836,1.836,0,0,0-2.167-.542L23.744,152.6a.569.569,0,0,0,.44,1.049l6.985-2.934a.735.735,0,0,1,.846.214.724.724,0,0,1-.181,1.061c-3.047,1.986-9.987,5.913-10.314,6.105-.011.011-.023.011-.034.023h0a4.193,4.193,0,0,1-2.979.429c-.068-.011-1.264-.158-5.563-.688l-1.907-.26v-7.64c.316-.023.587-.034.711-.034h.068a29.456,29.456,0,0,1,7.82.88l1.027.2a.786.786,0,0,1,.632.767.318.318,0,0,1-.011.09.712.712,0,0,1-.226.451.767.767,0,0,1-.553.226H15.19a.564.564,0,1,0,0,1.128h5.338a1.918,1.918,0,0,0,1.9-1.659,1.845,1.845,0,0,0,.023-.248A1.911,1.911,0,0,0,20.9,149.89l-1.016-.2a30.817,30.817,0,0,0-8.114-.9h-.056c-.124.011-.395.023-.688.034a.559.559,0,0,0-.542-.418H6.264a.559.559,0,0,0-.564.564v9.524a.559.559,0,0,0,.564.564h4.209a.562.562,0,0,0,.508-.327l1.828.226c2.268.282,5.372.655,5.507.677a6.5,6.5,0,0,0,1.207.113,4.917,4.917,0,0,0,2.528-.666c.011,0,.011-.011.023-.011.068-.045,7.245-4.1,10.382-6.139a1.838,1.838,0,0,0,.824-1.264A1.871,1.871,0,0,0,32.9,150.206Zm-22.987,7.73H6.828v-8.385H9.909Z" transform="translate(32.541 265.259)" fill="#999"/>
    <path id="Trazado_2002" data-name="Trazado 2002" d="M109.25,17.284a.564.564,0,0,0,.135-.79,3.734,3.734,0,0,1,.192-4.627c2.257-2.674,5.823-3.634,8.61-3.961a14.709,14.709,0,0,1-.632,5.135c-.192.632-1.975,6.15-5.789,5.01-.158-.056-1.162-.508-1.377-.632a.607.607,0,0,0-.44-.113c-.722.124-1.456,2.708-1.512,3.927a.559.559,0,0,0,.542.587H109a.561.561,0,0,0,.564-.542,7.886,7.886,0,0,1,.688-2.674c.079.034.169.079.271.124.181.079.756.35.9.384,3.713,1.106,6.207-2.415,7.211-5.766a15.613,15.613,0,0,0,.621-6.161.635.635,0,0,0-.655-.5c-4.378.406-7.8,1.941-9.9,4.412a4.823,4.823,0,0,0-.248,6.015A.535.535,0,0,0,109.25,17.284Z" transform="translate(-57.795 390.981)" fill="#999"/>
  </g>
</svg>
